<?xml version="1.0" encoding="UTF-8"?>
<svg version="1.1" xmlns="http://www.w3.org/2000/svg" width="661" height="611">
<path d="M0 0 C3.8324241 0.00684692 7.6648086 -0.0037185 11.49722457 -0.01193976 C18.98664611 -0.02522044 26.47597702 -0.02242456 33.96540199 -0.01370184 C40.05805972 -0.00690225 46.15069221 -0.00601837 52.24335265 -0.00927329 C53.11342617 -0.00973299 53.98349968 -0.01019269 54.87993906 -0.01066632 C56.64799062 -0.01162558 58.41604218 -0.01259823 60.18409373 -0.01358409 C76.73097418 -0.02212166 93.27780463 -0.0123301 109.82467689 0.00381701 C123.9912673 0.01721396 138.15778393 0.01489405 152.32437301 0.00106072 C168.81251817 -0.01503222 185.30061958 -0.02129287 201.78877151 -0.01210248 C203.55060942 -0.01114694 205.31244734 -0.01020382 207.07428527 -0.00927329 C207.94092719 -0.00881046 208.80756911 -0.00834764 209.70047291 -0.00787079 C215.77758974 -0.00529166 221.85467858 -0.00962861 227.93179107 -0.01671195 C235.34971709 -0.02516877 242.76754802 -0.02275984 250.18546329 -0.00686972 C253.96282377 0.00095792 257.74002631 0.00420011 261.51738524 -0.00581717 C298.20583382 -0.09472683 327.46399506 7.13126219 354.60513473 32.76717401 C385.31421927 64.89797543 384.0246522 107.93600533 383.79263473 149.39217401 C384.71624801 149.7665661 385.63986129 150.14095819 386.59146285 150.52669549 C393.25409509 153.27319437 399.55370569 156.02325959 405.29263473 160.45467401 C406.12408004 161.06665643 406.12408004 161.06665643 406.97232223 161.69100213 C408.59987702 162.90020657 410.19946073 164.13811634 411.79263473 165.39217401 C413.31243941 166.58713494 413.31243941 166.58713494 414.86294723 167.80623651 C430.26066531 181.39728901 440.06980863 202.0447162 441.79263473 222.39217401 C441.9430702 226.74115017 441.94974244 231.08775757 441.95376754 235.43904901 C441.95873244 236.73124856 441.96369735 238.02344811 441.9688127 239.35480523 C441.98185521 242.88215235 441.98836614 246.4094805 441.99282336 249.93684793 C441.99576857 252.14881664 441.9998761 254.36078035 442.00432754 256.57274652 C442.01798378 263.51712319 442.02765841 270.46148819 442.03152943 277.40587735 C442.03599948 285.37762336 442.05350617 293.349197 442.08253002 301.32089067 C442.10427353 307.51148782 442.11424048 313.70203695 442.11557055 319.89267182 C442.11660997 323.57637081 442.12233044 327.25990739 442.14039016 330.94356561 C442.28772488 362.79432242 438.12577612 388.14262142 415.41763473 412.07967401 C403.14252263 423.83302519 385.0594143 433.17113638 368.01529098 434.73983026 C364.76689899 435.01117606 364.76689899 435.01117606 363.60618758 437.09496331 C362.64904474 439.79762578 362.54782909 441.93252827 362.55313277 444.79988885 C362.54940154 445.88136193 362.54567031 446.96283502 362.54182601 448.07708001 C362.54802711 449.8224656 362.54802711 449.8224656 362.55435348 451.60311151 C362.53893551 454.06926285 362.522632 456.53540879 362.50552535 459.00154901 C362.48906123 462.88806346 362.48014747 466.77418218 362.4872148 470.66072869 C362.48983298 474.41281195 362.46172553 478.1636892 362.42935348 481.91561151 C362.43956023 483.07515344 362.44976699 484.23469537 362.46028304 485.42937493 C362.35121809 494.42550557 362.35121809 494.42550557 359.36612105 498.08602166 C355.18059887 501.83675144 352.58869732 502.89539127 346.79263473 502.69295526 C343.44519316 502.18953143 341.27923106 500.53878292 338.79263473 498.39217401 C338.15712691 497.84698113 337.5216191 497.30178826 336.86685348 496.7400744 C328.43615872 489.28404221 320.58445318 481.2599245 312.66763473 473.26717401 C309.85553302 470.42823561 307.03996208 467.59280223 304.22232223 464.75936151 C303.59502212 464.12376306 302.96772201 463.48816461 302.3214128 462.8333056 C298.54533651 459.03670681 294.65032441 455.45241344 290.57287765 451.98065972 C288.863127 450.45507327 287.33082246 448.86423605 285.80825973 447.15389276 C285.34677535 446.64406854 284.88529098 446.13424432 284.40982223 445.60897088 C283.49545219 444.58618269 282.59945572 443.54667914 281.72232223 442.49178338 C276.38606017 436.73540124 269.00643495 436.60902895 261.5142343 436.22345757 C257.96235329 436.16176382 254.41669884 436.16720564 250.86441207 436.19686151 C249.51255683 436.20071113 248.16069868 436.20363339 246.80883956 436.2057116 C243.92137751 436.2119821 241.03403573 436.22444071 238.14661956 436.24184442 C233.56205103 436.26918204 228.97752054 436.28073972 224.39288497 436.29012322 C213.82715881 436.31408783 203.26153498 436.35809737 192.69587874 436.4025805 C183.0181955 436.44314675 173.34054832 436.47925091 163.66279733 436.49901032 C159.86061425 436.50725731 156.05854769 436.51971182 152.2564218 436.5425036 C117.88834214 436.74631743 89.213721 434.77841592 63.41763473 409.39217401 C58.86624878 404.81009471 55.01872205 399.99537831 51.79263473 394.39217401 C51.33372848 394.80209588 50.87482223 395.21201776 50.40200973 395.63436151 C49.78841598 396.17318963 49.17482223 396.71201776 48.54263473 397.26717401 C47.93935348 397.80084588 47.33607223 398.33451776 46.71450973 398.88436151 C44.79263473 400.39217401 44.79263473 400.39217401 42.61685348 401.47029901 C40.63315045 402.24506775 40.63315045 402.24506775 39.85513473 404.26717401 C38.41571662 407.14601021 36.31056814 408.37782728 33.79263473 410.39217401 C31.92586422 412.4842444 30.12509233 414.61792397 28.34341598 416.78279901 C27.83165816 417.31389276 27.31990035 417.84498651 26.79263473 418.39217401 C26.13263473 418.39217401 25.47263473 418.39217401 24.79263473 418.39217401 C24.79263473 419.05217401 24.79263473 419.71217401 24.79263473 420.39217401 C24.13263473 420.39217401 23.47263473 420.39217401 22.79263473 420.39217401 C22.79263473 421.05217401 22.79263473 421.71217401 22.79263473 422.39217401 C22.13263473 422.39217401 21.47263473 422.39217401 20.79263473 422.39217401 C20.79263473 423.05217401 20.79263473 423.71217401 20.79263473 424.39217401 C15.84841503 429.48361612 10.66337775 434.43990104 3.35513473 434.82967401 C-1.16014831 434.6643891 -3.76951567 433.4207558 -7.20736527 430.39217401 C-13.162424 422.99968731 -11.33910136 411.32568099 -11.30502152 402.39217401 C-11.30315337 400.94629234 -11.30173135 399.50041004 -11.3007338 398.05452752 C-11.2969399 394.27344243 -11.28713679 390.49239657 -11.27602983 386.71132684 C-11.26574802 382.8432292 -11.26122176 378.97512515 -11.2561934 375.10701776 C-11.24551131 367.53538541 -11.22847305 359.96378523 -11.20736527 352.39217401 C-11.99951936 352.3989718 -12.79167344 352.40576959 -13.60783219 352.41277337 C-21.15512866 352.45055681 -28.41127424 351.9822 -35.89486527 351.01717401 C-36.97703324 350.89084588 -38.05920121 350.76451776 -39.17416215 350.63436151 C-40.19961137 350.50545526 -41.22506059 350.37654901 -42.28158402 350.24373651 C-43.205439 350.12852654 -44.12929399 350.01331658 -45.08114457 349.89461541 C-45.7827974 349.72880975 -46.48445024 349.56300408 -47.20736527 349.39217401 C-47.53736527 348.73217401 -47.86736527 348.07217401 -48.20736527 347.39217401 C-49.86656423 347.02346313 -51.53525828 346.69704625 -53.20736527 346.39217401 C-80.01302695 336.97712302 -99.60774061 317.6435786 -112.13705277 292.59139276 C-120.0874329 276.01007156 -121.8983466 259.60720957 -121.20736527 241.39217401 C-121.86736527 241.06217401 -122.52736527 240.73217401 -123.20736527 240.39217401 C-123.13590287 239.70131707 -123.06444047 239.01046014 -122.99081254 238.29866815 C-121.95122332 226.45824629 -122.09337859 214.62214172 -122.13220048 202.74596429 C-122.14509443 198.75881209 -122.15165816 194.77167575 -122.15633988 190.78450799 C-122.16735907 182.32038141 -122.1868888 173.8562822 -122.20736527 165.39217401 C-122.22948503 156.24880228 -122.25004729 147.10544206 -122.26078343 137.96204877 C-122.26649774 133.3813564 -122.28003806 128.80072485 -122.29501176 124.22005486 C-122.31839877 112.89213466 -122.29187073 101.67634092 -121.20736527 90.39217401 C-121.05670778 88.33002078 -120.91023613 86.26755297 -120.76986527 84.20467401 C-120.51539716 80.59339248 -120.29220827 79.5194385 -118.20736527 76.39217401 C-117.55993657 74.64988976 -116.91628106 72.90594532 -116.30550981 71.15047479 C-111.7255256 58.03520603 -105.31908672 46.94164243 -96.20736527 36.39217401 C-95.60537309 35.64580682 -95.0033809 34.89943963 -94.38314652 34.13045526 C-81.56400869 18.73136515 -62.48434589 8.26310292 -43.20736527 3.39217401 C-41.91235502 3.02234682 -41.91235502 3.02234682 -40.59118295 2.64504838 C-27.26720086 -0.62580601 -13.62901239 -0.03607936 0 0 Z M11.79263473 144.39217401 C10.06013473 144.48498651 10.06013473 144.48498651 8.29263473 144.57967401 C1.25362446 145.41155704 -4.88250552 149.59258095 -9.58236527 154.76717401 C-14.99428231 161.78886806 -17.51702802 168.4238645 -17.20736527 177.39217401 C-15.75615937 187.01533444 -12.56184359 193.87343186 -5.20736527 200.39217401 C3.75553242 206.81280051 11.79665408 208.35098468 22.79263473 207.39217401 C31.76147751 205.34039764 38.65990875 199.96536113 43.66763473 192.32967401 C48.44933071 184.42148449 49.12918567 175.62642168 47.21060348 166.67733026 C44.38724089 158.51665211 38.38876778 151.03793172 30.79263473 146.82967401 C26.65556653 145.06851245 22.28390961 144.34558402 17.79263473 144.39217401 C17.13263473 144.72217401 16.47263473 145.05217401 15.79263473 145.39217401 C15.79263473 144.73217401 15.79263473 144.07217401 15.79263473 143.39217401 C13.71809913 143.24310281 13.71809913 143.24310281 11.79263473 144.39217401 Z M106.55044723 153.32576776 C99.46266144 161.65785371 98.07217472 170.81208534 98.79263473 181.39217401 C100.49220504 190.62458564 106.14840936 198.10001798 113.79263473 203.39217401 C122.20842269 208.22610118 132.08136703 209.13358166 141.47232223 206.69686151 C143.73929241 205.76340319 145.71957624 204.69803762 147.79263473 203.39217401 C148.83677535 202.77342401 148.83677535 202.77342401 149.90200973 202.14217401 C156.70885192 197.63839872 160.27321043 191.32886422 163.16763473 183.82967401 C165.03093985 173.58149581 163.04884052 164.75516659 157.10513473 156.07967401 C152.3325844 150.19554234 146.07750607 146.34665168 138.79263473 144.39217401 C126.41632577 143.27882404 115.93808728 144.52723062 106.55044723 153.32576776 Z M222.00747848 154.05623651 C215.94761555 160.57766147 213.57665572 168.5497395 213.79263473 177.39217401 C214.83658524 184.22530462 216.47599346 189.9615608 220.79263473 195.39217401 C221.45263473 196.38217401 222.11263473 197.37217401 222.79263473 198.39217401 C223.45263473 198.39217401 224.11263473 198.39217401 224.79263473 198.39217401 C224.79263473 199.05217401 224.79263473 199.71217401 224.79263473 200.39217401 C226.53944765 201.37701509 228.29021983 202.35483587 230.04263473 203.32967401 C231.01716598 203.87494744 231.99169723 204.42022088 232.99575973 204.98201776 C240.18850723 208.60852872 249.78976944 208.70533693 257.53091598 206.67342401 C259.74816957 205.72371953 261.74309495 204.6611355 263.79263473 203.39217401 C264.41525191 203.04154901 265.0378691 202.69092401 265.67935348 202.32967401 C272.71598299 197.93368854 276.49994548 191.30574748 278.73013473 183.45467401 C280.98475316 172.71128136 278.75542659 164.60267386 272.79263473 155.39217401 C268.04785588 149.73298381 261.9778687 146.11569853 254.79263473 144.39217401 C252.21129692 144.37376874 250.31401309 144.73442313 247.79263473 145.39217401 C247.79263473 144.73217401 247.79263473 144.07217401 247.79263473 143.39217401 C237.73434796 143.39217401 229.29947584 147.25888229 222.00747848 154.05623651 Z " fill="#097EF3" transform="translate(159.20736527442932,58.60782599449158)"/>
<path d="M0 0 C0.33 0 0.66 0 1 0 C2.38072275 17.30834591 2.09709451 34.65145225 2 52 C2.92361328 52.37439209 3.84722656 52.74878418 4.79882812 53.13452148 C11.46146036 55.88102037 17.76107097 58.63108559 23.5 63.0625 C24.05429687 63.47048828 24.60859375 63.87847656 25.1796875 64.29882812 C26.80724229 65.50803257 28.406826 66.74594233 30 68 C31.01320313 68.79664063 32.02640625 69.59328125 33.0703125 70.4140625 C48.46803059 84.005115 58.2771739 104.65254219 60 125 C60.15043547 129.34897617 60.15710772 133.69558357 60.16113281 138.046875 C60.16609772 139.33907455 60.17106262 140.63127411 60.17617798 141.96263123 C60.18922048 145.48997834 60.19573142 149.01730649 60.20018864 152.54467392 C60.20313384 154.75664264 60.20724137 156.96860634 60.21169281 159.18057251 C60.22534905 166.12494918 60.23502368 173.06931419 60.2388947 180.01370335 C60.24336476 187.98544936 60.26087144 195.957023 60.2898953 203.92871666 C60.3116388 210.11931382 60.32160575 216.30986295 60.32293582 222.50049782 C60.32397525 226.18419681 60.32969571 229.86773339 60.34775543 233.5513916 C60.49509016 265.40214842 56.3331414 290.75044742 33.625 314.6875 C21.3498879 326.44085118 3.26677958 335.77896238 -13.77734375 337.34765625 C-17.02573574 337.61900206 -17.02573574 337.61900206 -18.18644714 339.70278931 C-19.14358998 342.40545177 -19.24480563 344.54035426 -19.23950195 347.40771484 C-19.24323318 348.48918793 -19.24696442 349.57066101 -19.25080872 350.68490601 C-19.24460762 352.4302916 -19.24460762 352.4302916 -19.23828125 354.2109375 C-19.25369922 356.67708885 -19.27000273 359.14323479 -19.28710938 361.609375 C-19.30357349 365.49588946 -19.31248726 369.38200817 -19.30541992 373.26855469 C-19.30280175 377.02063794 -19.3309092 380.7715152 -19.36328125 384.5234375 C-19.35307449 385.68297943 -19.34286774 386.84252136 -19.33235168 388.03720093 C-19.44141664 397.03333156 -19.44141664 397.03333156 -22.42651367 400.69384766 C-26.61203586 404.44457743 -29.20393741 405.50321726 -35 405.30078125 C-38.34744157 404.79735742 -40.51340367 403.14660892 -43 401 C-43.63550781 400.45480713 -44.27101563 399.90961426 -44.92578125 399.34790039 C-53.35647601 391.89186821 -61.20818154 383.86775049 -69.125 375.875 C-71.93710171 373.0360616 -74.75267265 370.20062823 -77.5703125 367.3671875 C-78.19761261 366.73158905 -78.82491272 366.0959906 -79.47122192 365.44113159 C-83.24729822 361.6445328 -87.14231032 358.06023944 -91.21975708 354.58848572 C-92.92950773 353.06289926 -94.46181226 351.47206204 -95.984375 349.76171875 C-96.44585937 349.25189453 -96.90734375 348.74207031 -97.3828125 348.21679688 C-98.29718253 347.19400868 -99.193179 346.15450514 -100.0703125 345.09960938 C-105.40657456 339.34322724 -112.78619978 339.21685494 -120.27840042 338.83128357 C-123.83028143 338.76958982 -127.37593588 338.77503164 -130.92822266 338.8046875 C-132.2800779 338.80853712 -133.63193604 338.81145938 -134.98379517 338.8135376 C-137.87125722 338.81980809 -140.758599 338.83226671 -143.64601517 338.84967041 C-148.2305837 338.87700803 -152.81511419 338.88856572 -157.39974976 338.89794922 C-167.96547591 338.92191382 -178.53109975 338.96592337 -189.09675598 339.01040649 C-198.77443922 339.05097274 -208.45208641 339.08707691 -218.12983739 339.10683632 C-221.93202048 339.11508331 -225.73408704 339.12753782 -229.53621292 339.15032959 C-266.16340779 339.36754071 -293.87226616 336.05393187 -321.11328125 309.3828125 C-325.07518745 305.08243788 -327.97548128 299.97744928 -331 295 C-326.45399304 290.40296501 -321.89991193 285.81404139 -317.34033203 281.23046875 C-315.79259587 279.6727222 -314.24666535 278.11317932 -312.70263672 276.55175781 C-310.47324075 274.29789461 -308.23726739 272.05073425 -306 269.8046875 C-305.31945557 269.1138205 -304.63891113 268.42295349 -303.93774414 267.71115112 C-296.81093306 260.58270905 -290.03181902 253.81916102 -279.43478417 253.72965056 C-278.71777329 253.73363165 -278.00076241 253.73761274 -277.26202393 253.74171448 C-276.48978792 253.73803877 -275.71755191 253.73436307 -274.92191482 253.73057598 C-272.33752419 253.72060652 -269.75334919 253.72474485 -267.16894531 253.72875977 C-265.31403881 253.72437174 -263.45913429 253.71906931 -261.60423279 253.71292114 C-257.60898891 253.70141996 -253.61379807 253.69596158 -249.6185379 253.69503975 C-243.28728942 253.69309638 -236.95615003 253.67502489 -230.62493896 253.65428162 C-214.88872271 253.6051147 -199.15247662 253.5742919 -183.41619873 253.55297852 C-171.2045631 253.53640773 -158.99302064 253.51343634 -146.78144717 253.46995777 C-140.50308522 253.44831062 -134.22490077 253.44011164 -127.94650412 253.44235051 C-124.01563113 253.44066896 -120.08487126 253.42652927 -116.15403938 253.40913773 C-114.34866989 253.40359635 -112.54327636 253.4029984 -110.7379055 253.40807533 C-79.49612309 253.48662795 -51.9780178 244.57783012 -29.1875 222.5625 C-24.49496445 217.71511751 -20.57845692 212.7099349 -17 207 C-16.41605469 206.09894531 -15.83210938 205.19789063 -15.23046875 204.26953125 C-4.49419242 186.93711129 -0.54466437 168.43164254 -0.56762695 148.26416016 C-0.55858679 146.63649259 -0.54825414 145.00883178 -0.53674316 143.38117981 C-0.5094114 139.00816284 -0.49992144 134.63527585 -0.49388909 130.26218462 C-0.4844427 125.67509444 -0.45823477 121.08809902 -0.43388367 116.50106812 C-0.39038607 107.83526616 -0.36173668 99.16948278 -0.33856028 90.50360525 C-0.31141834 80.62916912 -0.26751275 70.75482913 -0.22227156 60.88046193 C-0.12966533 40.5870265 -0.05787519 20.29356228 0 0 Z " fill="#5ECBD8" transform="translate(541,156)"/>
<path d="M0 0 C11.48032298 11.65453122 16.81269358 24.70434119 17 41 C15.97442719 56.0037503 9.54178898 67.92385828 -1.1875 78.1875 C-13.48513437 88.7193202 -27.02184825 90.90116071 -42.62109375 90.1953125 C-51.66058844 89.45315366 -58.90153453 85.36784785 -66 80 C-66.886875 79.38125 -67.77375 78.7625 -68.6875 78.125 C-71.43258506 75.6024894 -73.50434805 72.83033122 -75.66796875 69.8046875 C-77.01560049 67.8850643 -77.01560049 67.8850643 -79 66 C-83.62238314 55.94039055 -86.94812582 45.16681521 -86 34 C-85.93167969 33.19304688 -85.86335937 32.38609375 -85.79296875 31.5546875 C-83.95937043 17.7321771 -76.30956121 5.48520642 -65.40234375 -3.02734375 C-44.99318183 -16.91732014 -19.03444561 -15.89309655 0 0 Z " fill="#54C6DB" transform="translate(622,21)"/>
<path d="M0 0 C3.56572918 2.79885318 6.81642582 5.77641681 10 9 C10.64582031 9.62390625 11.29164062 10.2478125 11.95703125 10.890625 C19.52250519 18.73630168 24.89878238 30.33866338 25.02734375 41.33984375 C24.62770189 47.49842733 22.65762133 51.66451459 17.9375 55.8125 C13.96395053 58.24790129 10.10404855 58.21099031 5.59375 58.31640625 C4.44150185 58.34784981 4.44150185 58.34784981 3.26597595 58.37992859 C0.67743196 58.44739161 -1.91119408 58.50601162 -4.5 58.5625 C-5.394841 58.58268188 -6.28968201 58.60286377 -7.2116394 58.62365723 C-23.67209386 58.98377985 -40.13552373 59.16279695 -56.59960938 59.23117065 C-59.23228767 59.24367961 -61.86494724 59.26116147 -64.49755859 59.28372192 C-68.22895753 59.3136815 -71.95990036 59.32350902 -75.69140625 59.328125 C-76.80234146 59.34042648 -77.91327667 59.35272797 -79.05787659 59.36540222 C-86.9308394 59.34316318 -93.89312115 58.77635982 -99.9375 53.375 C-103.888339 46.90999072 -104.27034985 40.43462089 -104 33 C-103.34 33 -102.68 33 -102 33 C-101.89171875 32.13503906 -101.7834375 31.27007813 -101.671875 30.37890625 C-98.97046578 16.79333082 -88.40221257 6.71317903 -77.8671875 -1.41796875 C-54.08832398 -17.30034251 -23.27796119 -15.92257636 0 0 Z " fill="#54C6DB" transform="translate(116,539)"/>
<path d="M0 0 C9.36165469 6.81135621 15.935977 15.93448826 18.02734375 27.40625 C19.35486354 39.08238993 17.20343169 48.78306448 10.49609375 58.4921875 C3.69860874 66.862322 -4.82043827 72.46601254 -15.50390625 74.4921875 C-27.65249985 75.45992753 -37.68992035 72.81556521 -47.50390625 65.4921875 C-56.55828675 56.97449112 -61.19899198 46.86243744 -61.60546875 34.37109375 C-60.93817852 22.15332737 -56.60481727 12.10592583 -47.625 3.7421875 C-34.03153709 -7.24242899 -15.09169418 -9.08797809 0 0 Z " fill="#54C6DB" transform="translate(98.50390625,442.5078125)"/>
<path d="M0 0 C3.87504764 3.0613682 6.14078127 5.79296885 6.94140625 10.796875 C7.00944408 16.44401513 5.75970151 20.4890547 1.94140625 24.796875 C-0.11115312 26.01084007 -2.15591919 27.00873066 -4.3515625 27.9375 C-6.24902034 28.67955821 -6.24902034 28.67955821 -7.05859375 30.796875 C-7.71859375 30.796875 -8.37859375 30.796875 -9.05859375 30.796875 C-9.05859375 30.136875 -9.05859375 29.476875 -9.05859375 28.796875 C-9.96351563 28.55904297 -9.96351563 28.55904297 -10.88671875 28.31640625 C-16.08364028 26.79924045 -19.10120356 25.60263406 -22.05859375 20.796875 C-23.9357363 17.04258989 -23.57780848 12.88494497 -23.05859375 8.796875 C-21.30249401 4.09556762 -19.03742476 1.41805622 -14.80859375 -1.265625 C-9.446946 -2.60603694 -4.89852278 -2.86289377 0 0 Z " fill="#54C6DE" transform="translate(464.05859375,4.203125)"/>
<path d="M0 0 C6.60887565 5.53301217 8.43470678 14.61897752 9.5 22.875 C8.81424776 27.1609515 7.56371971 29.46622418 5 33 C2.0830413 34.84228971 0.43900077 35.00914585 -3 34.9375 C-7.02529617 33.67959495 -8.43292677 32.37772793 -11 29 C-14.42141393 21.76680948 -17.71885713 13.03862327 -14.9375 5.125 C-11.23803334 -0.84188172 -6.6093471 -2.04288911 0 0 Z " fill="#56C7DC" transform="translate(595,135)"/>
<path d="M0 0 C3.73977554 2.56651262 5.54029947 4.29568308 7 8.5625 C7.34162368 13.34523159 5.89544 16.30257499 2.9375 20 C-0.26285887 22.54574001 -1.73513564 23.1875 -5.8125 23.1875 C-11.49809545 22.09367803 -15.17264588 19.58237135 -18.6796875 15.01171875 C-20.37064455 12.28869481 -20.87939724 10.39856773 -20.8125 7.1875 C-19.59973561 2.97849419 -18.66031692 0.81843352 -15.125 -1.8125 C-9.53592392 -3.49976825 -5.03868503 -2.67879457 0 0 Z " fill="#54C7DE" transform="translate(510.8125,19.8125)"/>
<path d="M0 0 C0.66 0.33 1.32 0.66 2 1 C-2.29 5.29 -6.58 9.58 -11 14 C-11.66 13.67 -12.32 13.34 -13 13 C-4.738041 3.40546697 -4.738041 3.40546697 0 0 Z " fill="#0D7AE9" transform="translate(76,82)"/>
<path d="M0 0 C0.66 0.33 1.32 0.66 2 1 C1.525625 1.350625 1.05125 1.70125 0.5625 2.0625 C-1.67873825 4.84163543 -1.67117658 7.5144717 -2 11 C-2.99 11 -3.98 11 -5 11 C-4.50769231 3.49230769 -4.50769231 3.49230769 -1.9375 1 C-1.298125 0.67 -0.65875 0.34 0 0 Z " fill="#5DCCE2" transform="translate(584,137)"/>
<path d="M0 0 C0 2.31 0 4.62 0 7 C-3 6 -3 6 -4.1875 3.9375 C-4.5896875 2.9784375 -4.5896875 2.9784375 -5 2 C-1.125 0 -1.125 0 0 0 Z " fill="#65CDD0" transform="translate(215,449)"/>
<path d="M0 0 C0.33 0 0.66 0 1 0 C1 4.29 1 8.58 1 13 C-1.24087517 10.75912483 -1.66556265 10.09354547 -2 7 C-1.411438 4.645752 -0.75407101 2.30657014 0 0 Z " fill="#5ECCE5" transform="translate(14,573)"/>
<path d="M0 0 C0.99 0.495 0.99 0.495 2 1 C1.67 2.32 1.34 3.64 1 5 C0.67 3.35 0.34 1.7 0 0 Z " fill="#3FFFFF" transform="translate(597,260)"/>
<path d="M0 0 C3 1 3 1 3 1 Z " fill="#2AFFFF" transform="translate(540,491)"/>
<path d="M0 0 C0.66 0.66 1.32 1.32 2 2 C1.34 2 0.68 2 0 2 C0 1.34 0 0.68 0 0 Z " fill="#54FFFF" transform="translate(239,482)"/>
<path d="M0 0 C3 1 3 1 3 1 Z " fill="#00FFFF" transform="translate(593,112)"/>
<path d="" fill="#00FFFF" transform="translate(0,0)"/>
<path d="" fill="#00FFFF" transform="translate(0,0)"/>
<path d="M0 0 C2 1 2 1 2 1 Z " fill="#00FFFF" transform="translate(432,497)"/>
<path d="" fill="#6AD4D4" transform="translate(0,0)"/>
<path d="M0 0 C2 1 2 1 2 1 Z " fill="#00FFFF" transform="translate(272,495)"/>
<path d="M0 0 C2 1 2 1 2 1 Z " fill="#3FFFFF" transform="translate(255,491)"/>
<path d="" fill="#00FFFF" transform="translate(0,0)"/>
<path d="" fill="#7F7FFF" transform="translate(0,0)"/>
<path d="M0 0 C2 1 2 1 2 1 Z " fill="#3FFFFF" transform="translate(84,436)"/>
<path d="M0 0 C2 1 2 1 2 1 Z " fill="#00FFFF" transform="translate(119,410)"/>
<path d="" fill="#00BFFF" transform="translate(0,0)"/>
<path d="M0 0 C2 1 2 1 2 1 Z " fill="#00FFFF" transform="translate(303,207)"/>
<path d="M0 0 C2 1 2 1 2 1 Z " fill="#00FFFF" transform="translate(404,203)"/>
<path d="" fill="#2A94FF" transform="translate(0,0)"/>
<path d="" fill="#00FFFF" transform="translate(0,0)"/>
<path d="M0 0 C2 1 2 1 2 1 Z " fill="#0094FF" transform="translate(95,68)"/>
<path d="M0 0 C2 1 2 1 2 1 Z " fill="#00FFFF" transform="translate(461,60)"/>
<path d="" fill="#7FFFFF" transform="translate(0,0)"/>
<path d="" fill="#00FFFF" transform="translate(0,0)"/>
<path d="" fill="#00FFFF" transform="translate(0,0)"/>
<path d="" fill="#7FFFFF" transform="translate(0,0)"/>
<path d="" fill="#00FFFF" transform="translate(0,0)"/>
<path d="" fill="#7F7F7F" transform="translate(0,0)"/>
<path d="" fill="#7FFFFF" transform="translate(0,0)"/>
<path d="" fill="#7FFFFF" transform="translate(0,0)"/>
<path d="" fill="#00FFFF" transform="translate(0,0)"/>
<path d="" fill="#55AAAA" transform="translate(0,0)"/>
<path d="" fill="#00FFFF" transform="translate(0,0)"/>
<path d="" fill="#7FFFFF" transform="translate(0,0)"/>
<path d="" fill="#00FFFF" transform="translate(0,0)"/>
<path d="" fill="#00FFFF" transform="translate(0,0)"/>
<path d="" fill="#7FFFFF" transform="translate(0,0)"/>
<path d="" fill="#00FFFF" transform="translate(0,0)"/>
<path d="" fill="#7FFFFF" transform="translate(0,0)"/>
<path d="" fill="#00FFFF" transform="translate(0,0)"/>
<path d="" fill="#00FFFF" transform="translate(0,0)"/>
<path d="" fill="#00FFFF" transform="translate(0,0)"/>
<path d="" fill="#7FFFFF" transform="translate(0,0)"/>
<path d="" fill="#00FFFF" transform="translate(0,0)"/>
<path d="" fill="#7FFFFF" transform="translate(0,0)"/>
<path d="" fill="#00FFFF" transform="translate(0,0)"/>
<path d="" fill="#7FFFFF" transform="translate(0,0)"/>
<path d="" fill="#00FFFF" transform="translate(0,0)"/>
<path d="" fill="#7FFFFF" transform="translate(0,0)"/>
<path d="" fill="#55AAAA" transform="translate(0,0)"/>
<path d="" fill="#7FFFFF" transform="translate(0,0)"/>
<path d="" fill="#7FFFFF" transform="translate(0,0)"/>
<path d="" fill="#7FFFFF" transform="translate(0,0)"/>
<path d="" fill="#55AAFF" transform="translate(0,0)"/>
<path d="" fill="#55AAAA" transform="translate(0,0)"/>
<path d="" fill="#55AAFF" transform="translate(0,0)"/>
<path d="" fill="#00FFFF" transform="translate(0,0)"/>
<path d="" fill="#00FFFF" transform="translate(0,0)"/>
<path d="" fill="#00FFFF" transform="translate(0,0)"/>
<path d="" fill="#7FFFFF" transform="translate(0,0)"/>
<path d="" fill="#00FFFF" transform="translate(0,0)"/>
<path d="" fill="#55AAAA" transform="translate(0,0)"/>
<path d="" fill="#00FFFF" transform="translate(0,0)"/>
<path d="" fill="#7FFFFF" transform="translate(0,0)"/>
<path d="" fill="#00FFFF" transform="translate(0,0)"/>
<path d="" fill="#00FFFF" transform="translate(0,0)"/>
<path d="" fill="#00FFFF" transform="translate(0,0)"/>
<path d="" fill="#00FFFF" transform="translate(0,0)"/>
<path d="" fill="#00FFFF" transform="translate(0,0)"/>
<path d="" fill="#55AAAA" transform="translate(0,0)"/>
<path d="" fill="#7FFFFF" transform="translate(0,0)"/>
<path d="" fill="#00FFFF" transform="translate(0,0)"/>
<path d="" fill="#00FFFF" transform="translate(0,0)"/>
<path d="" fill="#00FFFF" transform="translate(0,0)"/>
<path d="" fill="#00FFFF" transform="translate(0,0)"/>
<path d="" fill="#00FFFF" transform="translate(0,0)"/>
<path d="" fill="#7FFFFF" transform="translate(0,0)"/>
<path d="" fill="#7F7FFF" transform="translate(0,0)"/>
<path d="" fill="#7F7FFF" transform="translate(0,0)"/>
<path d="" fill="#7F7FFF" transform="translate(0,0)"/>
<path d="" fill="#00FFFF" transform="translate(0,0)"/>
<path d="" fill="#00FFFF" transform="translate(0,0)"/>
<path d="" fill="#00FFFF" transform="translate(0,0)"/>
<path d="" fill="#007FFF" transform="translate(0,0)"/>
<path d="" fill="#00FFFF" transform="translate(0,0)"/>
<path d="" fill="#00AAFF" transform="translate(0,0)"/>
<path d="" fill="#00FFFF" transform="translate(0,0)"/>
<path d="" fill="#00FFFF" transform="translate(0,0)"/>
<path d="" fill="#00FFFF" transform="translate(0,0)"/>
<path d="" fill="#00FFFF" transform="translate(0,0)"/>
<path d="" fill="#00FFFF" transform="translate(0,0)"/>
<path d="" fill="#007FFF" transform="translate(0,0)"/>
<path d="" fill="#00AAFF" transform="translate(0,0)"/>
<path d="" fill="#00FFFF" transform="translate(0,0)"/>
<path d="" fill="#007FFF" transform="translate(0,0)"/>
<path d="" fill="#00AAFF" transform="translate(0,0)"/>
<path d="" fill="#00FFFF" transform="translate(0,0)"/>
<path d="" fill="#00FFFF" transform="translate(0,0)"/>
<path d="" fill="#00FFFF" transform="translate(0,0)"/>
<path d="" fill="#007FFF" transform="translate(0,0)"/>
<path d="" fill="#00FFFF" transform="translate(0,0)"/>
<path d="" fill="#007FFF" transform="translate(0,0)"/>
<path d="" fill="#00FFFF" transform="translate(0,0)"/>
<path d="" fill="#00FFFF" transform="translate(0,0)"/>
<path d="" fill="#007FFF" transform="translate(0,0)"/>
<path d="" fill="#00FFFF" transform="translate(0,0)"/>
<path d="" fill="#007FFF" transform="translate(0,0)"/>
<path d="" fill="#007FFF" transform="translate(0,0)"/>
<path d="" fill="#007FFF" transform="translate(0,0)"/>
<path d="" fill="#00FFFF" transform="translate(0,0)"/>
<path d="" fill="#00FFFF" transform="translate(0,0)"/>
<path d="" fill="#00FFFF" transform="translate(0,0)"/>
<path d="" fill="#00FFFF" transform="translate(0,0)"/>
<path d="" fill="#00FFFF" transform="translate(0,0)"/>
<path d="" fill="#00FFFF" transform="translate(0,0)"/>
<path d="" fill="#00FFFF" transform="translate(0,0)"/>
<path d="" fill="#00FFFF" transform="translate(0,0)"/>
<path d="" fill="#00FFFF" transform="translate(0,0)"/>
<path d="" fill="#00FFFF" transform="translate(0,0)"/>
<path d="" fill="#00FFFF" transform="translate(0,0)"/>
<path d="" fill="#00FFFF" transform="translate(0,0)"/>
<path d="" fill="#00FFFF" transform="translate(0,0)"/>
<path d="" fill="#007FFF" transform="translate(0,0)"/>
<path d="" fill="#00FFFF" transform="translate(0,0)"/>
<path d="" fill="#00AAFF" transform="translate(0,0)"/>
<path d="" fill="#00AAFF" transform="translate(0,0)"/>
<path d="" fill="#00FFFF" transform="translate(0,0)"/>
<path d="" fill="#00FFFF" transform="translate(0,0)"/>
<path d="" fill="#00FFFF" transform="translate(0,0)"/>
<path d="" fill="#00FFFF" transform="translate(0,0)"/>
<path d="" fill="#00FFFF" transform="translate(0,0)"/>
<path d="" fill="#00FFFF" transform="translate(0,0)"/>
<path d="" fill="#00FFFF" transform="translate(0,0)"/>
<path d="" fill="#00FFFF" transform="translate(0,0)"/>
<path d="" fill="#00FFFF" transform="translate(0,0)"/>
<path d="" fill="#00FFFF" transform="translate(0,0)"/>
<path d="" fill="#7FFFFF" transform="translate(0,0)"/>
<path d="" fill="#00FFFF" transform="translate(0,0)"/>
<path d="" fill="#55AAFF" transform="translate(0,0)"/>
<path d="" fill="#00FFFF" transform="translate(0,0)"/>
<path d="" fill="#00FFFF" transform="translate(0,0)"/>
<path d="" fill="#007FFF" transform="translate(0,0)"/>
<path d="" fill="#7FFFFF" transform="translate(0,0)"/>
<path d="" fill="#00FFFF" transform="translate(0,0)"/>
<path d="" fill="#00AAFF" transform="translate(0,0)"/>
<path d="" fill="#7FFFFF" transform="translate(0,0)"/>
<path d="" fill="#7FFFFF" transform="translate(0,0)"/>
<path d="" fill="#00AAFF" transform="translate(0,0)"/>
<path d="" fill="#00FFFF" transform="translate(0,0)"/>
<path d="" fill="#007FFF" transform="translate(0,0)"/>
<path d="" fill="#00FFFF" transform="translate(0,0)"/>
<path d="" fill="#00FFFF" transform="translate(0,0)"/>
<path d="" fill="#00FFFF" transform="translate(0,0)"/>
<path d="" fill="#0000FF" transform="translate(0,0)"/>
<path d="" fill="#007FFF" transform="translate(0,0)"/>
<path d="" fill="#007FFF" transform="translate(0,0)"/>
<path d="" fill="#00FFFF" transform="translate(0,0)"/>
<path d="" fill="#00FFFF" transform="translate(0,0)"/>
<path d="" fill="#00FFFF" transform="translate(0,0)"/>
<path d="" fill="#7FFFFF" transform="translate(0,0)"/>
<path d="" fill="#55AAFF" transform="translate(0,0)"/>
<path d="" fill="#7F7FFF" transform="translate(0,0)"/>
<path d="" fill="#00FFFF" transform="translate(0,0)"/>
<path d="" fill="#00FFFF" transform="translate(0,0)"/>
<path d="" fill="#55AAFF" transform="translate(0,0)"/>
<path d="" fill="#00FFFF" transform="translate(0,0)"/>
<path d="" fill="#00FFFF" transform="translate(0,0)"/>
<path d="" fill="#00FFFF" transform="translate(0,0)"/>
<path d="" fill="#00FFFF" transform="translate(0,0)"/>
<path d="" fill="#00FFFF" transform="translate(0,0)"/>
<path d="" fill="#00FFFF" transform="translate(0,0)"/>
<path d="" fill="#00FFFF" transform="translate(0,0)"/>
<path d="" fill="#00FFFF" transform="translate(0,0)"/>
<path d="" fill="#7F7FFF" transform="translate(0,0)"/>
<path d="" fill="#00FFFF" transform="translate(0,0)"/>
<path d="" fill="#00FFFF" transform="translate(0,0)"/>
<path d="" fill="#00FFFF" transform="translate(0,0)"/>
<path d="" fill="#7F7FFF" transform="translate(0,0)"/>
<path d="" fill="#00FFFF" transform="translate(0,0)"/>
<path d="" fill="#00FFFF" transform="translate(0,0)"/>
<path d="" fill="#7F7FFF" transform="translate(0,0)"/>
</svg>
